<?xml version="1.0" encoding="UTF-8" standalone="no"?> <svg width="512" height="512" viewBox="0 0 512 512" fill="none" xmlns="http://www.w3.org/2000/svg">
<path d="M488 208.002H24C19.582 208.002 16 211.584 16 216.002V488.002C16 492.42 19.582 496.002 24 496.002H488C492.418 496.002 496 492.42 496 488.002V216.002C496 211.584 492.418 208.002 488 208.002ZM32 231.672L198.169 352.001L32 472.331V231.672ZM268.463 365.1C261.008 370.498 250.99 370.498 243.537 365.1L48.689 224.002H463.311L268.463 365.1ZM211.809 361.879L234.152 378.059C240.687 382.791 248.342 385.156 256 385.156C263.656 385.156 271.314 382.79 277.848 378.059L300.191 361.879L463.314 480.002H48.687L211.809 361.879ZM313.831 352.001L480 231.672V472.331L313.831 352.001ZM146.343 101.658L210.343 165.658C212.632 167.947 216.074 168.631 219.062 167.392C222.051 166.154 224 163.237 224 160.001V128.196C262.072 130.445 296.631 152.01 315.298 185.609L321.007 195.886C322.442 198.47 325.147 200.002 327.999 200.002C328.665 200.002 329.339 199.919 330.007 199.745C333.535 198.831 336 195.647 336 192.001C336 127.317 287.386 72.922 224 65.002V32.001C224 28.765 222.051 25.848 219.062 24.61C216.072 23.371 212.63 24.057 210.343 26.344L146.343 90.344C143.219 93.468 143.219 98.534 146.343 101.658ZM208 51.315V72.273C208 76.487 211.27 79.979 215.475 80.256C261.617 83.294 299.888 114.361 314.085 156.131C290.053 128.438 254.888 112.001 217.392 112.001H216C211.582 112.001 208 115.583 208 120.001V140.687L163.313 96.001L208 51.315ZM232.018 47.474C232.309 43.066 236.143 39.723 240.527 40.018C272.151 42.105 304.577 59.74 329.492 88.401C353.964 116.555 368 151.399 368 184.001C368 188.419 364.418 192.001 360 192.001C355.582 192.001 352 188.419 352 184.001C352 155.201 339.395 124.183 317.416 98.898C295.279 73.433 266.871 57.791 239.474 55.983C235.064 55.693 231.727 51.883 232.018 47.474ZM106.343 101.658C103.219 98.534 103.219 93.469 106.343 90.345L178.343 18.345C181.468 15.221 186.532 15.221 189.657 18.345C192.781 21.469 192.781 26.534 189.657 29.658L123.313 96.001L189.657 162.344C192.781 165.468 192.781 170.533 189.657 173.657C188.095 175.22 186.048 176.001 184 176.001C181.952 176.001 179.905 175.22 178.343 173.658L106.343 101.658Z" fill="url(#paint0_linear_91_22212)"/>
<defs>
<linearGradient id="paint0_linear_91_22212" x1="58.3428" y1="533.658" x2="437.657" y2="154.345" gradientUnits="userSpaceOnUse">
<stop stop-color="#5EBCE5"/>
<stop offset="0.481" stop-color="#B678E6"/>
<stop offset="1" stop-color="#E25B61"/>
</linearGradient>
</defs>
</svg>
